<svg xmlns="http://www.w3.org/2000/svg" width="28" height="28" viewBox="0 0 28 28" fill="none"><circle cx="14" cy="14" r="14" transform="rotate(-90 14 14)" fill="#E3DACC"/><path d="M8.91 6.67C9.18 6.67 9.42 6.7 9.67 6.7C9.69 6.7 9.88 6.7 9.88 6.7C9.91 7.1 9.92 7.49 9.97 7.88C9.97 8.01 10 8.12 10 8.23C10.02 8.44 10 8.65 10 8.83C10.02 8.95 10.03 9.09 10.03 9.2C10.03 9.2 10.08 9.2 10.09 9.2C10.2 9.2 10.35 9.21 10.48 9.21C10.77 9.24 11.05 9.2 11.32 9.2C11.57 9.21 11.77 9.24 12.01 9.25C12.17 9.27 12.6 9.28 12.6 9.28C12.6 9.28 12.6 9.38 12.63 9.47C12.64 9.88 12.69 10.27 12.69 10.68C12.68 10.82 12.67 10.94 12.68 11.08C12.68 11.27 12.68 11.49 12.69 11.69C12.7 11.72 12.72 11.86 12.72 11.86C12.72 11.86 12.87 11.86 12.89 11.86C13.59 11.83 14.26 11.86 14.9 11.87C15.12 11.87 15.33 11.86 15.55 11.87C15.55 11.64 15.55 11.49 15.55 11.31C15.55 11.16 15.55 10.98 15.55 10.82C15.55 10.38 15.52 9.9 15.55 9.43C15.55 9.4 15.55 9.14 15.55 9.14C15.55 9.14 15.7 9.13 15.74 9.11C16.02 9.09 16.3 9.09 16.58 9.07C16.91 9.03 17.24 9.03 17.55 8.99L18.03 8.95L18.03 6.7L21.31 6.7C21.31 6.77 21.31 6.83 21.31 6.89C21.31 7.23 21.35 7.58 21.33 7.89C21.33 8.11 21.29 8.32 21.29 8.52C21.25 9.21 21.31 9.94 21.31 10.64C21.31 11.59 21.22 12.54 21.26 13.52C21.29 14 21.31 14.48 21.33 14.99C21.33 15.25 21.31 15.46 21.29 15.72C21.27 16.63 21.33 17.57 21.33 18.51C21.33 19.28 21.33 20.05 21.31 20.83C21.31 21.02 21.33 21.15 21.33 21.3C21.03 21.3 20.97 21.3 20.69 21.3C20.66 21.3 20.4 21.33 20.36 21.33C19.96 21.33 19.59 21.3 19.21 21.3C18.87 21.27 18.14 21.28 18.14 21.28C18.14 21.28 18.1 21.02 18.1 20.92C18.08 20.52 18.03 20.08 18.03 19.78C18.03 19.52 18.03 19.22 18.03 19.22C17.91 19.22 17.79 19.2 17.68 19.2C17.17 19.16 16.8 19.16 16.3 19.13C16.14 19.13 15.81 19.12 15.65 19.13C15.66 18.97 15.65 18.79 15.65 18.61C15.65 18.09 15.59 17.54 15.59 17.04C15.59 16.74 15.59 16.43 15.59 16.14C15.58 16.13 15.58 16.09 15.55 16.09L12.69 16.18C12.7 16.36 12.7 16.63 12.69 16.8C12.68 17.13 12.64 17.34 12.64 17.67C12.63 18 12.64 18.34 12.64 18.65C12.64 18.72 12.64 19.09 12.64 19.2C12.5 19.22 12.35 19.2 12.2 19.2C11.68 19.22 11.13 19.24 10.59 19.3C10.54 19.3 10.11 19.31 10.09 19.33C10.08 19.64 10.11 19.97 10.11 20.29C10.11 20.4 10.08 20.53 10.08 20.66C10.08 20.86 10.09 21.02 10.08 21.24C9.8 21.26 9.47 21.27 9.18 21.27C8.71 21.26 8.25 21.3 7.79 21.3C7.4 21.3 6.7 21.27 6.7 21.27C6.7 21.27 6.7 21.07 6.68 20.94C6.65 20.11 6.72 19.28 6.77 18.46C6.77 17.73 6.74 16.99 6.72 16.25C6.72 15.76 6.75 15.28 6.77 14.77C6.77 14.14 6.74 13.49 6.75 12.86C6.75 12.5 6.77 12.16 6.77 11.79C6.77 11.54 6.74 11.27 6.74 10.98C6.72 10.38 6.77 9.76 6.77 9.14C6.75 8.82 6.72 8.5 6.72 8.17C6.7 7.81 6.72 7.47 6.75 7.12C6.75 7 6.77 6.88 6.77 6.75C6.8 6.72 7.19 6.77 7.26 6.77C7.65 6.77 8.1 6.75 8.5 6.72C8.62 6.7 8.78 6.67 8.9 6.67C8.9 6.67 8.91 6.67 8.91 6.67L8.91 6.67Z" fill="#C46686"/></svg>
